<svg width="34" height="34" viewBox="0 0 34 34" fill="none" xmlns="http://www.w3.org/2000/svg">
<g clip-path="url(#clip0_345_14929)">
<path d="M17 0C13.6377 0 10.3509 0.997033 7.55531 2.86502C4.75968 4.733 2.58075 7.38804 1.29406 10.4944C0.00736586 13.6007 -0.329291 17.0189 0.326658 20.3165C0.982607 23.6142 2.6017 26.6433 4.97919 29.0208C7.35668 31.3983 10.3858 33.0174 13.6835 33.6734C16.9811 34.3293 20.3993 33.9926 23.5056 32.706C26.612 31.4193 29.267 29.2403 31.135 26.4447C33.003 23.6491 34 20.3623 34 17C33.9951 12.4928 32.2025 8.17163 29.0154 4.98457C25.8284 1.79751 21.5072 0.00487487 17 0V0ZM31.1667 17C31.1649 17.9036 31.0766 18.8049 30.9032 19.6917L28.1662 18.87C28.3891 17.6333 28.3891 16.3667 28.1662 15.13L30.9032 14.3083C31.0766 15.1951 31.1649 16.0964 31.1667 17ZM30.09 11.594L27.3558 12.4143C26.2102 9.84489 24.1551 7.7898 21.5858 6.64417L22.406 3.91C25.8818 5.35573 28.6443 8.11819 30.09 11.594ZM17 25.5C15.3189 25.5 13.6755 25.0015 12.2777 24.0675C10.8798 23.1335 9.79038 21.806 9.14703 20.2528C8.50369 18.6996 8.33536 16.9906 8.66333 15.3417C8.99131 13.6929 9.80085 12.1783 10.9896 10.9896C12.1783 9.80085 13.6929 8.9913 15.3417 8.66333C16.9906 8.33535 18.6996 8.50368 20.2528 9.14702C21.806 9.79037 23.1335 10.8798 24.0675 12.2777C25.0015 13.6755 25.5 15.3189 25.5 17C25.4978 19.2537 24.6015 21.4144 23.0079 23.0079C21.4144 24.6015 19.2537 25.4978 17 25.5ZM19.6917 3.09683L18.87 5.83383C17.6333 5.61094 16.3667 5.61094 15.13 5.83383L14.3083 3.09683C16.0856 2.7456 17.9144 2.7456 19.6917 3.09683ZM11.594 3.91L12.4143 6.64417C9.8449 7.7898 7.7898 9.84489 6.64417 12.4143L3.91001 11.594C5.35573 8.11819 8.1182 5.35573 11.594 3.91ZM2.83334 17C2.83513 16.0964 2.92337 15.1951 3.09684 14.3083L5.83384 15.13C5.61095 16.3667 5.61095 17.6333 5.83384 18.87L3.09684 19.6917C2.92337 18.8049 2.83513 17.9036 2.83334 17ZM3.91001 22.406L6.64417 21.5858C7.7898 24.1551 9.8449 26.2102 12.4143 27.3558L11.594 30.09C8.1182 28.6443 5.35573 25.8818 3.91001 22.406ZM14.3083 30.906L15.13 28.169C16.3667 28.3919 17.6333 28.3919 18.87 28.169L19.6917 30.906C17.9144 31.2572 16.0856 31.2572 14.3083 30.906ZM22.406 30.0914L21.5858 27.3587C24.1551 26.213 26.2102 24.1579 27.3558 21.5886L30.09 22.4088C28.644 25.8835 25.8815 28.6445 22.406 30.0886V30.0914ZM20.7273 15.4303C21.0666 15.8833 21.25 16.434 21.25 17C21.25 17.566 21.0666 18.1167 20.7273 18.5697L18.0455 22.1439C17.9239 22.3064 17.766 22.4382 17.5846 22.529C17.4031 22.6199 17.2029 22.6671 17 22.6671C16.7971 22.6671 16.5969 22.6199 16.4154 22.529C16.234 22.4382 16.0762 22.3064 15.9545 22.1439L13.2728 18.5697C12.9334 18.1167 12.75 17.566 12.75 17C12.75 16.434 12.9334 15.8833 13.2728 15.4303L15.9545 11.8561C16.0762 11.6936 16.234 11.5618 16.4154 11.471C16.5969 11.3801 16.7971 11.3329 17 11.3329C17.2029 11.3329 17.4031 11.3801 17.5846 11.471C17.766 11.5618 17.9239 11.6936 18.0455 11.8561L20.7273 15.4303Z" fill="#FF7622"/>
</g>
<defs>
<clipPath id="clip0_345_14929">
<rect width="34" height="34" fill="white"/>
</clipPath>
</defs>
</svg>
